<svg width="14" height="8" viewBox="0 0 14 8" fill="none" xmlns="http://www.w3.org/2000/svg">
<path d="M4.64321e-05 0.499599C7.5051e-05 0.400001 0.0278832 0.302674 0.0799052 0.220126C0.131927 0.137579 0.205788 0.0735915 0.29201 0.0363276C0.378232 -0.000935792 0.47288 -0.00979637 0.563811 0.0109685C0.654741 0.0317338 0.737806 0.0811742 0.802346 0.152866L7.00034 6.79612L13.2018 0.152867C13.2452 0.106325 13.2967 0.0693669 13.3534 0.0441675C13.4102 0.0189676 13.471 0.00603051 13.5324 0.00601288C13.5938 0.00599571 13.6546 0.0188846 13.7114 0.0440521C13.7681 0.0692196 13.8197 0.106119 13.8631 0.152637C13.9065 0.199155 13.9409 0.254385 13.9644 0.315167C13.9879 0.37595 14 0.441133 14 0.506919C14 0.572706 13.9879 0.637845 13.9643 0.698614C13.9408 0.759383 13.9064 0.814594 13.8629 0.861087L7.3309 7.85476C7.2435 7.9478 7.12528 8 7.00206 8C6.87885 8 6.76063 7.9478 6.67323 7.85476L0.141226 0.861086C0.0961682 0.814134 0.0604312 0.757906 0.036164 0.695789C0.0118977 0.633671 -0.00039894 0.566935 1.11461e-05 0.499599L4.64321e-05 0.499599Z" fill="#0C0C0C"/>
</svg>
