<svg width="14" height="8" viewBox="0 0 14 8" fill="none" xmlns="http://www.w3.org/2000/svg">
<path d="M14 7.5004C13.9999 7.6 13.9721 7.69733 13.9201 7.77987C13.8681 7.86242 13.7942 7.92641 13.708 7.96367C13.6218 8.00093 13.5271 8.0098 13.4362 7.98903C13.3453 7.96827 13.2622 7.91882 13.1977 7.84713L6.99966 1.20388L0.798217 7.84713C0.754816 7.89368 0.703279 7.93063 0.646552 7.95583C0.589824 7.98103 0.529018 7.99397 0.467606 7.99399C0.406195 7.994 0.345382 7.98112 0.288642 7.95595C0.231902 7.93078 0.180347 7.89388 0.136922 7.84736C0.093498 7.80085 0.059055 7.74561 0.0355614 7.68483C0.0120677 7.62405 -1.62167e-05 7.55887 1.63334e-08 7.49308C1.62494e-05 7.42729 0.0121323 7.36215 0.035656 7.30139C0.0591796 7.24062 0.0936499 7.18541 0.137097 7.13891L6.6691 0.14524C6.7565 0.052198 6.87472 0 6.99794 0C7.12115 0 7.23937 0.052198 7.32677 0.14524L13.8588 7.13891C13.9038 7.18586 13.9396 7.24209 13.9638 7.30421C13.9881 7.36633 14.0004 7.43306 14 7.5004H14Z" fill="#828282"/>
</svg>
