<svg width="16" height="16" viewBox="0 0 16 16" fill="none" xmlns="http://www.w3.org/2000/svg">
<path d="M6.56959 13.1392C2.93105 13.1392 0 10.2081 0 6.56959C0 2.93105 2.93105 0 6.56959 0C10.2081 0 13.1392 2.93105 13.1392 6.56959C13.1392 10.2081 10.2081 13.1392 6.56959 13.1392ZM6.56959 1.01071C3.48694 1.01071 1.01071 3.48694 1.01071 6.56959C1.01071 9.65225 3.48694 12.1285 6.56959 12.1285C9.65225 12.1285 12.1285 9.65225 12.1285 6.56959C12.1285 3.48694 9.65225 1.01071 6.56959 1.01071Z" fill="#BDBDBD"/>
<path d="M11.4626 10.7474L16.0007 15.2854L15.2861 16L10.748 11.4619L11.4626 10.7474Z" fill="#BDBDBD"/>
</svg>
