<svg width="30" height="30" viewBox="0 0 30 30" fill="none" xmlns="http://www.w3.org/2000/svg">
<path d="M26.0701 21.072V20.972H25.9701L3 20.972H2.9V21.072V21.9289V22.0289H3L25.9701 22.0289H26.0701V21.9289V21.072Z" fill="#828282" stroke="#828282" stroke-width="0.2"/>
<path d="M23.6186 24.292L23.6185 24.2918C23.5567 24.1759 23.5365 24.04 23.5513 23.914C23.566 23.7886 23.6166 23.6638 23.7071 23.5752C23.7071 23.5751 23.7072 23.5751 23.7072 23.5751L25.7182 21.5971L25.7183 21.597C25.7591 21.5569 25.7692 21.5236 25.7692 21.5107V21.5101H25.7692C25.7692 21.4975 25.7594 21.4639 25.7183 21.4232L25.7182 21.4231L23.7051 19.4235L23.7051 19.4235C23.6153 19.3342 23.5652 19.2092 23.5509 19.0837C23.5365 18.9577 23.557 18.822 23.6194 18.7065L23.7074 18.754M23.6186 24.292L26.5001 21.5124M23.6186 24.292C23.6936 24.4316 23.8197 24.5216 23.9627 24.5216C24.0561 24.5216 24.1453 24.4827 24.2176 24.4114L24.2175 24.4115L24.1474 24.3402L24.2176 24.4114L26.2287 22.4333M23.6186 24.292L26.2287 22.4333M23.7074 18.754L23.6193 18.7067C23.6816 18.5907 23.7785 18.5097 23.8927 18.4856C24.0087 18.4612 24.1266 18.499 24.2186 18.5899L24.2188 18.5901L24.2188 18.5901L26.2319 20.5896C26.4683 20.8242 26.6008 21.1612 26.6001 21.5126M23.7074 18.754C23.81 18.5629 24.0069 18.5213 24.1483 18.661L25.7887 21.3522L23.7756 19.3525C23.6351 19.2129 23.6045 18.9447 23.7074 18.754ZM26.6001 21.5126L26.5001 21.5124M26.6001 21.5126C26.6001 21.5126 26.6001 21.5125 26.6001 21.5125L26.5001 21.5124M26.6001 21.5126C26.5997 21.864 26.4658 22.2001 26.2287 22.4333L26.1586 22.362M26.5001 21.5124C26.4998 21.8393 26.3751 22.1491 26.1586 22.362M26.1586 22.362L26.2287 22.4333M26.1586 22.362L26.2287 22.4333" fill="#828282" stroke="#828282" stroke-width="0.2"/>
<path d="M3.92989 9.34967L3.92989 9.44967L4.02989 9.44967L27 9.44967L27.1 9.44967L27.1 9.34967L27.1 8.49276L27.1 8.39276L27 8.39276L4.02989 8.39275L3.92989 8.39275L3.92989 8.49275L3.92989 9.34967Z" fill="#828282" stroke="#828282" stroke-width="0.2"/>
<path d="M6.38135 6.12966L6.38146 6.12985C6.44335 6.24577 6.46352 6.38162 6.44874 6.50759C6.43403 6.63306 6.38344 6.75779 6.29289 6.84646C6.29286 6.84649 6.29283 6.84652 6.2928 6.84655L4.28177 8.82456L4.28174 8.82459C4.24086 8.86477 4.23085 8.89808 4.23085 8.91094L4.23085 8.91158L4.23085 8.91158C4.23077 8.92416 4.24064 8.95773 4.28173 8.99844L4.28181 8.99852L6.29491 10.9981L6.29495 10.9982C6.38473 11.0875 6.43483 11.2124 6.44914 11.3379C6.4635 11.4639 6.44297 11.5996 6.38061 11.7151L6.29261 11.6676M6.38135 6.12966L3.4999 8.90923M6.38135 6.12966C6.3064 5.99003 6.18029 5.9 6.03726 5.9C5.9439 5.9 5.85465 5.93889 5.78241 6.0102L5.7825 6.01011L5.85262 6.08141L5.78236 6.01024L3.7713 7.9883M6.38135 6.12966L3.7713 7.9883M6.29261 11.6676L6.38072 11.7149C6.31843 11.831 6.22148 11.9119 6.10734 11.936C5.99134 11.9605 5.87342 11.9227 5.7814 11.8318L5.7812 11.8316L5.7812 11.8316L3.76814 9.83199C3.53174 9.59741 3.39922 9.26042 3.3999 8.90904M6.29261 11.6676C6.19003 11.8587 5.99308 11.9003 5.85167 11.7606L4.21133 9.06947L6.22443 11.0691C6.36489 11.2088 6.39551 11.477 6.29261 11.6676ZM3.3999 8.90904L3.4999 8.90923M3.3999 8.90904C3.3999 8.90907 3.3999 8.9091 3.3999 8.90913L3.4999 8.90923M3.3999 8.90904C3.40026 8.5576 3.53418 8.2215 3.77129 7.9883L3.84142 8.0596M3.4999 8.90923C3.50022 8.58232 3.62489 8.27254 3.84142 8.0596M3.84142 8.0596L3.7713 7.9883M3.84142 8.0596L3.7713 7.9883" fill="#828282" stroke="#828282" stroke-width="0.2"/>
</svg>
